name Walk3.mot
datacolumns 19
datarows 15
range 2.44000000 2.51000000
endheader

                time	   L_ground_force_vx	   L_ground_force_vy	   L_ground_force_vz	   L_ground_force_px	   L_ground_force_py	   L_ground_force_pz	   R_ground_force_vx	   R_ground_force_vy	   R_ground_force_vz	   R_ground_force_px	   R_ground_force_py	   R_ground_force_pz	   L_ground_torque_x	   L_ground_torque_y	   L_ground_torque_z	   R_ground_torque_x	   R_ground_torque_y	   R_ground_torque_z	
          2.44000000	          9.79543720	         54.21973303	         -0.25532424	         -0.08806802	          0.00000000	         -0.00765561	         -0.00000000	          0.00000000	          0.00000000	          0.00000000	          0.00000000	          0.00000000	          0.00000000	         -0.16024391	          0.00000000	          0.00000000	         -0.00000000	          0.00000000	
          2.44500000	         11.25300659	         77.31495718	         -0.43368750	         -0.19568934	          0.00000000	         -0.01532301	         -0.00000000	          0.00000000	          0.00000000	          0.00000000	          0.00000000	          0.00000000	          0.00000000	         -0.20536814	          0.00000000	          0.00000000	         -0.00000000	          0.00000000	
          2.45000000	         11.39928918	        101.84036542	         -0.69706406	         -0.29075823	          0.00000000	         -0.02212597	         -0.00000000	          0.00000000	          0.00000000	          0.00000000	          0.00000000	          0.00000000	          0.00000000	         -0.23154668	          0.00000000	          0.00000000	         -0.00000000	          0.00000000	
          2.45500000	          9.84681816	        126.65571014	         -1.03998346	         -0.37009494	          0.00000000	         -0.02781140	         -0.00000000	          0.00000000	          0.00000000	          0.00000000	          0.00000000	          0.00000000	          0.00000000	         -0.23220934	          0.00000000	          0.00000000	         -0.00000000	          0.00000000	
          2.46000000	          6.45913862	        150.95132367	         -1.41967703	         -0.43291305	          0.00000000	         -0.03231026	         -0.00000000	          0.00000000	          0.00000000	          0.00000000	          0.00000000	          0.00000000	          0.00000000	         -0.20311659	          0.00000000	          0.00000000	         -0.00000000	          0.00000000	
          2.46500000	          1.42622009	        174.43007596	         -1.76078736	         -0.48002637	          0.00000000	         -0.03568930	         -0.00000000	          0.00000000	          0.00000000	          0.00000000	          0.00000000	          0.00000000	          0.00000000	         -0.14324923	          0.00000000	          0.00000000	          0.00000000	          0.00000000	
          2.47000000	         -4.79782191	        197.10985826	         -1.99552032	         -0.51321169	          0.00000000	         -0.03809675	         -0.00000000	          0.00000000	         -0.00000000	         -0.00000000	          0.00000000	         -0.00000000	          0.00000000	         -0.05492226	          0.00000000	          0.00000000	          0.00000000	          0.00000000	
          2.47500000	        -11.59302530	        219.10299756	         -2.09305107	         -0.53471749	          0.00000000	         -0.03971097	         -0.00000000	         -0.00000000	         -0.00000000	         -0.00000000	          0.00000000	         -0.00000000	          0.00000000	          0.05636838	          0.00000000	          0.00000000	          0.00000000	          0.00000000	
          2.48000000	        -18.26482073	        240.53484941	         -2.06369762	         -0.54691205	          0.00000000	         -0.04071173	         -0.00000000	         -0.00000000	         -0.00000000	         -0.00000000	          0.00000000	         -0.00000000	          0.00000000	          0.18204548	          0.00000000	          0.00000000	          0.00000000	          0.00000000	
          2.48500000	        -24.16283922	        261.53496799	         -1.93982435	         -0.55205079	          0.00000000	         -0.04126373	         -0.00000000	         -0.00000001	         -0.00000000	         -0.00000000	          0.00000000	         -0.00000000	          0.00000000	          0.31123269	          0.00000000	          0.00000000	          0.00000000	          0.00000000	
          2.49000000	        -28.83960511	        282.22259503	         -1.73619827	         -0.55212988	          0.00000000	         -0.04151213	          0.00000000	         -0.00000001	         -0.00000000	         -0.00000000	          0.00000000	         -0.00000000	          0.00000000	          0.43223224	          0.00000000	          0.00000000	          0.00000000	          0.00000000	
          2.49500000	        -32.18260442	        302.66990085	         -1.41117544	         -0.54880680	          0.00000000	         -0.04158003	          0.00000000	         -0.00000002	         -0.00000000	         -0.00000000	          0.00000000	         -0.00000000	          0.00000000	          0.53491445	          0.00000000	          0.00000000	          0.00000000	          0.00000000	
          2.50000000	        -34.41846765	        322.86574689	         -0.86777703	         -0.54338272	          0.00000000	         -0.04156753	          0.00000000	         -0.00000003	         -0.00000000	         -0.00000000	          0.00000000	         -0.00000000	          0.00000000	          0.61239903	          0.00000000	          0.00000000	          0.00000000	          0.00000000	
          2.50500000	        -35.97345328	        342.73268463	          0.00528192	         -0.53682981	          0.00000000	         -0.04155109	          0.00000000	         -0.00000003	         -0.00000000	         -0.00000000	          0.00000000	         -0.00000000	          0.00000000	          0.66158535	          0.00000000	          0.00000000	          0.00000000	          0.00000000	
          2.51000000	        -37.29218792	        362.19626051	          1.29681269	         -0.52984269	          0.00000000	         -0.04158323	          0.00000000	         -0.00000004	         -0.00000000	         -0.00000000	          0.00000000	         -0.00000000	          0.00000000	          0.68266791	          0.00000000	          0.00000000	          0.00000000	          0.00000000	
